Coordinates
version=1
nRows=12
nColumns=24
inDegrees=yes

Units are S.I. units (second, meters, Newtons, ...)
Angles are in degrees.

endheader
time	pelvis_tilt	pelvis_list	pelvis_rotation	pelvis_tx	pelvis_ty	pelvis_tz	hip_flexion_r	hip_adduction_r	hip_rotation_r	knee_angle_r	ankle_angle_r	subtalar_angle_r	mtp_angle_r	hip_flexion_l	hip_adduction_l	hip_rotation_l	knee_angle_l	ankle_angle_l	subtalar_angle_l	mtp_angle_l	lumbar_extension	lumbar_bending	lumbar_rotation
      3.58500000	     -8.25738089	      8.72285012	     -0.44296792	     -0.66853204	     -0.01988784	      0.65624285	     40.23139389	    -12.24328295	     -2.16769551	    -66.01163410	    -17.06420076	    -17.17317389	     22.70848063	      2.93978616	     12.97262151	     13.03610909	    -14.61022261	     18.06230666	    -13.13324925	    -39.35306756	      8.98477968	     -9.42931548	     -5.60595239
      3.59000000	     -8.25816589	      8.54930534	     -0.30854515	     -0.66126598	     -0.01998719	      0.65589437	     40.69529767	    -11.99080287	     -2.29412905	    -65.02117625	    -16.70589595	    -17.10223970	     22.13084503	      2.24505544	     12.70052198	     12.91385600	    -14.19405101	     18.12481821	    -12.55732331	    -38.73584129	      8.91848594	     -9.21404893	     -5.93406307
      3.59500000	     -8.27313894	      8.38893474	     -0.18506196	     -0.65406737	     -0.02016160	      0.65561255	     41.15167314	    -11.72200602	     -2.34373536	    -63.95971592	    -16.36082555	    -16.92057256	     21.77533036	      1.58685161	     12.43594257	     12.81653294	    -13.81087031	     18.17403683	    -11.96779253	    -38.15261114	      8.85504131	     -9.01574553	     -6.26116494
      3.60000000	     -8.26034992	      8.24121963	     -0.04404027	     -0.64686946	     -0.02038079	      0.65531318	     41.53696470	    -11.49023255	     -2.40456689	    -62.82804472	    -15.95620131	    -16.64263503	     21.54149336	      0.91745139	     12.17970151	     12.66186227	    -13.45812305	     18.22195995	    -11.29543665	    -37.47366586	      8.75439619	     -8.83141743	     -6.58545818
      3.60500000	     -8.20020008	      8.03641999	     -0.05511296	     -0.63962136	     -0.02061568	      0.65531952	     41.84845452	    -11.08074529	     -2.38094601	    -61.61379868	    -15.59174810	    -16.42402819	     21.01311141	      0.23145965	     11.82445854	     12.08849368	    -13.10002335	     17.75752762	    -10.46308348	    -34.78042295	      8.63031304	     -8.56213354	     -6.72678240
      3.61000000	     -8.29521623	      7.94481156	      0.23030262	     -0.63252289	     -0.02106144	      0.65478017	     42.26774817	    -11.00341828	     -2.43239341	    -60.34615126	    -15.12418500	    -15.80779987	     21.35257953	     -0.30017060	     11.64922004	     12.23418592	    -12.81828440	     17.80597085	     -9.90418169	    -34.40278934	      8.60955062	     -8.45105299	     -7.19538294
      3.61500000	     -8.35908509	      7.77760075	      0.36593240	     -0.62530735	     -0.02147428	      0.65443349	     42.61044908	    -10.74817686	     -2.40517231	    -58.96720361	    -14.73827095	    -15.20521592	     21.60906188	     -0.87017983	     11.37637566	     12.22766199	    -12.50310850	     17.88406229	     -9.32298137	    -34.08403779	      8.59360714	     -8.21915227	     -7.45863908
      3.62000000	     -8.24704434	      7.67578204	      0.53545494	     -0.61834881	     -0.02181700	      0.65418720	     42.73418118	    -10.57131857	     -2.33260149	    -57.52691160	    -14.24236602	    -14.52573226	     22.03085753	     -1.54698305	     11.14890833	     12.01785840	    -12.31072171	     17.96884860	     -8.40239999	    -33.31008232	      8.32376273	     -8.08956195	     -7.85128384
      3.62500000	     -8.33757388	      7.39578796	      0.68839362	     -0.61122852	     -0.02233708	      0.65403227	     42.98151253	    -10.19524234	     -2.32599270	    -55.93189463	    -14.02812910	    -14.10028149	     22.70217131	     -1.96503711	     10.69555216	     11.40076839	    -12.09449228	     16.66742968	     -7.44659419	    -27.52864860	      8.31086309	     -7.76351713	     -8.15017805
      3.63000000	     -8.33018445	      7.29072670	      0.82996025	     -0.60418866	     -0.02282767	      0.65371837	     43.13506644	    -10.00018028	     -2.17048524	    -54.35046806	    -13.46490126	    -13.19388599	     22.90352809	     -2.54162531	     10.48402541	     11.36744040	    -11.88104647	     16.75251502	     -6.81508872	    -27.33337641	      8.17394079	     -7.59931165	     -8.45969335
      3.63500000	     -8.34118860	      7.13508419	      1.00368374	     -0.59715585	     -0.02332391	      0.65336810	     43.23777960	     -9.78672118	     -2.06465605	    -52.66735149	    -12.96989440	    -12.39435108	     23.14085637	     -3.06502111	     10.21119813	     11.29099889	    -11.72619977	     16.85968484	     -6.06903162	    -27.00389702	      8.04738347	     -7.38178881	     -8.79655268
      3.64000000	     -8.26521892	      6.85476732	      1.06351129	     -0.59007346	     -0.02370331	      0.65325541	     43.17529777	     -9.36836893	     -1.94912720	    -50.85495533	    -12.64534901	    -11.89030967	     23.24730686	     -3.63878190	      9.77521100	     10.82511878	    -11.59689113	     16.77017661	     -5.06183966	    -25.54138031	      7.84390177	     -7.01819913	     -9.03722706
